<?xml version="1.0" encoding="utf-8"?>
<!-- Generator: Adobe Illustrator 27.5.0, SVG Export Plug-In . SVG Version: 6.00 Build 0)  -->
<svg version="1.1" id="Ebene_1" xmlns="http://www.w3.org/2000/svg" xmlns:xlink="http://www.w3.org/1999/xlink" x="0px" y="0px"
	 width="163px" height="44.5px" viewBox="0 0 163 44.5" style="enable-background:new 0 0 163 44.5;" xml:space="preserve">
<style type="text/css">
	.st0{fill:#C8102E;}
	.st1{fill:#4B3D3C;}
</style>
<g transform="translate(-76 -20)">
	<path class="st0" d="M158.8,28.2c0.8-0.7,2-0.7,2.9,0l9.2,8.2c0.7,0.7,0.8,1.8,0.2,2.5c0,0.1-0.1,0.1-0.2,0.2l-7.8,6.9l7.7,6.9
		c0.7,0.7,0.8,1.8,0.2,2.5c0,0.1-0.1,0.1-0.2,0.2l-9.2,8.3c-0.8,0.7-2,0.7-2.9,0l-7.8-7l-7.8,7c-0.4,0.3-0.9,0.5-1.4,0.5
		c-0.5,0-1-0.2-1.4-0.5c-0.7-0.7-0.8-1.8-0.2-2.5c0-0.1,0.1-0.1,0.2-0.2l9.2-8.2c0.8-0.7,2-0.7,2.9,0l7.8,7l6.3-5.6l-7.7-6.9
		c-0.7-0.7-0.8-1.8-0.2-2.5c0-0.1,0.1-0.1,0.2-0.2l7.8-6.9l-6.3-5.6l-7.8,7c-0.8,0.7-2,0.7-2.9,0l-9.2-8.2c-0.7-0.7-0.8-1.8-0.2-2.5
		c0-0.1,0.1-0.1,0.2-0.2c0.8-0.7,2-0.7,2.9,0l7.8,6.9"/>
	<path class="st1" d="M183.7,49.2l0.3-0.3V34.2l-0.3-0.3H180l-0.3,0.3v14.7l0.3,0.3L183.7,49.2z"/>
	<path class="st1" d="M183.7,31.4l0.3-0.3V28l-0.3-0.3H180l-0.3,0.3v3.1l0.3,0.3L183.7,31.4z"/>
	<path class="st1" d="M195.7,33.6c-1.5-0.1-2.9,0.5-4,1.5h-0.3l-0.3-0.9l-0.3-0.3h-3.4l-0.3,0.3v14.7l0.3,0.3h3.7l0.3-0.3v-7.7
		c0-2.8,1.2-4,3.4-4c1.8,0,2.5,1.2,2.5,2.8v8.9l0.3,0.3h3.7l0.3-0.3v-9.2C201.5,36,199.4,33.6,195.7,33.6z"/>
	<path class="st1" d="M206.1,49.2h3.7l0.3-0.3V37.9l0.3-0.3h3.1l0.3-0.3v-3.1l-0.3-0.3h-3.1l-0.3-0.3v-1.2c-0.1-0.4,0.2-0.8,0.7-0.9
		c0.1,0,0.2,0,0.2,0h2.8l0.3-0.3v-3.1l-0.3-0.3H211c-2.8,0-5.2,1.2-5.2,4.6v1.2l-0.3,0.3h-2.2l-0.3,0.3v3.1l0.3,0.3h2.2l0.3,0.3
		v11.1L206.1,49.2z"/>
	<path class="st1" d="M229.8,41.5c0-4.9-3.1-8-7.7-8s-7.7,3.1-7.7,8s3.1,8,7.7,8S229.8,46.4,229.8,41.5z M218.8,41.5
		c0-2.8,1.2-4.3,3.4-4.3s3.4,1.5,3.4,4.3s-1.2,4.3-3.4,4.3S218.8,44.3,218.8,41.5L218.8,41.5z"/>
	<path class="st0" d="M121,28.5c-10.5,0-17.6,6.9-17.6,18c0,11.1,7,18,17.6,18c10.5,0,17.6-6.9,17.6-18S131.5,28.5,121,28.5z
		 M121,56.2c-4.9,0-7.7-3.5-7.7-9.7s2.8-9.7,7.7-9.7c4.9,0,7.7,3.5,7.7,9.7S125.9,56.2,121,56.2z"/>
	<path class="st1" d="M184.2,56.9c-2.6-0.5-4.2-0.8-4.2-2.6c0-1.3,1-2.1,2.9-2.1c2.3,0,3.1,1,3.1,2.3l0.3,0.3h1l0.3-0.3
		c0-2.6-2.1-3.6-4.6-3.6c-2.9,0-4.4,1.6-4.4,3.4c0,2.1,1.6,3.1,4.2,3.6s3.9,0.8,3.9,2.9c0,1.3-0.8,2.3-3.4,2.3
		c-2.3,0-3.4-1.3-3.4-2.9l-0.3-0.3h-1l-0.3,0.3c0,2.3,1.8,4.2,4.9,4.2c3.4,0,4.9-1.6,4.9-3.6C188,58.5,186.7,57.5,184.2,56.9z"/>
	<path class="st1" d="M198.6,51.3l-0.3,0.3v7c0,2.9-1.3,4.6-4.2,4.6c-1.8,0-3.1-1-3.1-3.6v-8l-0.3-0.3h-1l-0.3,0.3v8
		c0,3.4,1.8,4.9,4.4,4.9c1.7,0.1,3.2-0.7,4.2-2.1h0.3l0.3,1.6l0.3,0.3h0.8l0.3-0.3V51.5l-0.3-0.3H198.6z"/>
	<path class="st1" d="M202.8,51.3l-0.3,0.3v12.4l0.3,0.3h1l0.3-0.3V51.5l-0.3-0.3H202.8z"/>
	<path class="st1" d="M211.9,56.9c-2.6-0.5-4.2-0.8-4.2-2.6c0-1.3,1-2.1,2.9-2.1c2.3,0,3.1,1,3.1,2.3l0.3,0.3h1l0.3-0.3
		c0-2.6-2.1-3.6-4.6-3.6c-2.9,0-4.4,1.6-4.4,3.4c0,2.1,1.6,3.1,4.2,3.6s3.9,0.8,3.9,2.9c0,1.3-0.8,2.3-3.4,2.3
		c-2.3,0-3.4-1.3-3.4-2.9l-0.3-0.3h-1l-0.3,0.3c0,2.3,1.8,4.2,4.9,4.2c3.4,0,4.9-1.6,4.9-3.6C215.7,58.5,214.4,57.5,211.9,56.9z"/>
	<path class="st1" d="M222.7,56.9c-2.6-0.5-4.2-0.8-4.2-2.6c0-1.3,1-2.1,2.9-2.1c2.3,0,3.1,1,3.1,2.3l0.3,0.3h1l0.3-0.3
		c0-2.6-2.1-3.6-4.6-3.6c-2.9,0-4.4,1.6-4.4,3.4c0,2.1,1.6,3.1,4.2,3.6s3.9,0.8,3.9,2.9c0,1.3-0.8,2.3-3.4,2.3
		c-2.3,0-3.4-1.3-3.4-2.9l-0.3-0.3h-1l-0.3,0.3c0,2.3,1.8,4.2,4.9,4.2c3.4,0,4.9-1.6,4.9-3.6C226.6,58.5,225.3,57.5,222.7,56.9z"/>
	<path class="st1" d="M233.3,51c-3.6,0-5.7,2.6-5.7,6.2v0.5c0,3.6,1.8,6.7,5.9,6.7c3.6,0,4.9-2.3,5.2-3.9l-0.3-0.3h-1l-0.3,0.3
		c-0.4,1.6-2,2.7-3.6,2.6c-3.4,0-4.4-3.1-4.4-4.6l0.3-0.3h9.3L239,58v-0.8C239,53.6,237,51,233.3,51z M237.2,56.9h-7.8l-0.3-0.3
		c-0.1-2.3,1.6-4.3,3.9-4.4c2.3-0.1,4.3,1.6,4.4,3.9c0,0.1,0,0.3,0,0.4L237.2,56.9z"/>
	<path class="st0" d="M100.7,27.7h-8.5v-7.1c0-0.3-0.3-0.6-0.6-0.6c0,0,0,0,0,0h-8.6c-0.3,0-0.6,0.3-0.6,0.6c0,0,0,0,0,0v7.1h-5.7
		c-0.3,0-0.6,0.3-0.6,0.6c0,0,0,0,0,0v7.2c0,0.3,0.3,0.6,0.6,0.6c0,0,0,0,0,0h5.7v17.1c0,7.7,5.6,10.5,11.9,10.5h6.4
		c0.3,0,0.6-0.3,0.6-0.6c0,0,0,0,0,0v-7.2c0-0.3-0.3-0.6-0.6-0.6c0,0,0,0,0,0h-6.4c-1,0.1-2-0.6-2.1-1.6c0-0.2,0-0.3,0-0.5V36.1h8.5
		c0.3,0,0.6-0.3,0.6-0.6c0,0,0,0,0,0v-7.2c0.1-0.3-0.1-0.5-0.4-0.6C100.8,27.7,100.7,27.7,100.7,27.7z"/>
</g>
</svg>
