<svg width="619" height="154" viewBox="0 0 619 154" fill="none" xmlns="http://www.w3.org/2000/svg">
<g clip-path="url(#clip0_103_2)">
<path d="M76.9992 0.5C34.4792 0.5 0.5 34.48 0.5 77C0.5 119.52 34.4792 153.5 76.9992 153.5C119.519 153.5 153.5 119.52 153.5 77C153.5 34.48 119.519 0.5 76.9992 0.5Z" stroke="#007934" stroke-miterlimit="10"/>
<path d="M51.0592 51.06V102.94H38.5392V51.06H51.0592Z" fill="#007934"/>
<path d="M77.0003 51.06V102.94H64.4803V51.06H77.0003Z" fill="#007934"/>
<path d="M102.94 51.06V102.94H90.4202V51.06H102.94Z" fill="#007-934"/>
<path d="M128.88 51.06V102.94H116.36V51.06H128.88Z" fill="#007934"/>
<path d="M51.0592 51.06H102.939V38.54H51.0592V51.06Z" fill="#007934"/>
<path d="M51.0592 77H102.939V64.48H51.0592V77Z" fill="#007934"/>
<path d="M51.0592 102.94H102.939V90.42H51.0592V102.94Z" fill="#007934"/>
<path d="M228.618 107.5V106.56C228.618 102.8 227.018 99.9 223.858 99.9H203.498L204.338 103.5H223.798C224.218 103.5 224.518 103.8 224.518 104.22V107.5H228.618Z" fill="#007934"/>
<path d="M178.583 45.4192L176.723 53.6992H190.583L193.583 45.4192H178.583ZM204.083 45.4192L191.123 107.459H176.063L189.023 45.4192H204.083ZM228.323 45.4192L215.363 107.459H200.303L213.263 45.4192H228.323Z" fill="#007934"/>
<path d="M259.951 45.4192C275.551 45.4192 284.011 57.5392 284.011 76.4992C284.011 95.5192 275.551 107.519 259.951 107.519H236.491V45.4192H259.951ZM258.031 100.859C269.911 100.859 274.651 91.0792 274.651 76.4992C274.651 61.9792 269.911 52.0792 258.031 52.0792H245.851V100.859H258.031Z" fill="#007934"/>
<path d="M319.463 45.4192V107.459H305.603V45.4192H319.463Z" fill="#007934"/>
<path d="M336.191 107.459V45.4192H349.991L363.191 79.4392L376.391 45.4192H390.191V107.459H380.291V64.6792L370.331 89.2792H365.951L355.991 64.6792V107.459H336.191Z" fill="#007934"/>
<g>
<path d="M410.871 45.4192V107.459H397.011V45.4192H410.871Z" fill="#007934"/>
</g>
<g>
<path d="M437.583 45.4192L424.623 107.459H409.563L422.523 45.4192H437.583Z" fill="#007934"/>
</g>
<g>
<path d="M445.751 45.4192V107.459H459.611V45.4192H445.751Z" fill="#007934"/>
</g>
<g>
<path d="M495.643 45.4192C503.923 45.4192 510.643 49.3792 510.643 56.9392V107.459H496.783V58.6192C496.783 54.4792 494.083 52.0792 490.543 52.0792C487.003 52.0792 484.303 54.4792 484.303 58.6192V107.459H470.443V56.9392C470.443 49.3792 477.163 45.4192 485.443 45.4192C488.023 45.4192 490.303 45.9592 492.223 46.9792C493.123 46.0192 494.323 45.4192 495.643 45.4192Z" fill="#007934"/>
</g>
<path d="M523.823 45.4192H537.683V107.459H523.823V45.4192Z" fill="#007934"/>
<path d="M575.471 45.4192C583.751 45.4192 590.471 49.3792 590.471 56.9392V107.459H576.611V58.6192C576.611 54.4792 573.911 52.0792 570.371 52.0792C566.831 52.0792 564.131 54.4792 564.131 58.6192V107.459H550.271V56.9392C550.271 49.3792 556.991 45.4192 565.271 45.4192C567.851 45.4192 570.131 45.9592 572.051 46.9792C572.951 46.0192 574.151 45.4192 575.471 45.4192Z" fill="#007934"/>
<path d="M618.618 107.5V106.56C618.618 102.8 617.018 99.9 613.858 99.9H593.498L594.338 103.5H613.798C614.218 103.5 614.518 103.8 614.518 104.22V107.5H618.618Z" fill="#007934"/>
</g>
<defs>
<clipPath id="clip0_103_2">
<rect width="619" height="153" fill="white" transform="translate(0 0.5)"/>
</clipPath>
</defs>
</svg>
